<svg version="1.1" xmlns="http://www.w3.org/2000/svg" viewBox="0 0 600.44140625 342.162109375">
  <!-- svg-source:excalidraw -->
  <defs>
    <style>
      @font-face {
        font-family: "Virgil";
        src: url("https://excalidraw.com/FG_Virgil.woff2");
      }
      @font-face {
        font-family: "Cascadia";
        src: url("https://excalidraw.com/Cascadia.woff2");
      }
    </style>
  </defs>
  <rect x="0" y="0" width="600.44140625" height="342.162109375" fill="#ffffff"></rect><g transform="translate(50.98046875 231.986328125) rotate(0 69.59765625 50.087890625)"><path d="M-1.427021136507392 0.262719651684165 C47.69065799179007 -1.8004436588836688, 90.5955781021432 0.17875223392715278, 139.6551293823868 -0.1792703066021204 M-0.8349656658247113 -0.6276550246402621 C31.386753117710033 0.40835745279466207, 62.28417208892788 0.25490252320443685, 138.21168328355998 -0.7659067763015628 M140.32163853384554 0.8839797582477331 C137.53116185281777 39.95958787017116, 139.6330521187594 79.5134274121483, 138.69536353088915 99.13909330032764 M138.22041250299662 0.6022446500137448 C139.57407732670018 20.111146660312443, 139.20764194791028 40.12435641749835, 138.85319254826754 99.70359117258339 M139.11149121262133 102.03841819427906 C84.0792834224041 100.1222841275241, 30.974087122055053 101.31245185261031, -0.7070349957793951 98.88949998281895 M139.83147285412997 100.27223545778541 C84.03624679362619 98.29263723429037, 29.873202854399267 98.36020395692182, 0.39141793083399534 100.31072053778915 M-1.9226364400237799 100.59218486212193 C0.5657737822306445 73.38510505866178, -1.5859713583218764 47.90515805244285, -1.6574739124625921 0.07677151821553707 M-0.5599205987527966 100.2485588537529 C-0.9340382636297363 60.963054161611566, -0.4069017887819427 21.109164345263693, -0.4163468675687909 0.5203555868938565" stroke="#000000" stroke-width="1" fill="none"></path></g><g transform="translate(98.67578125 266.216796875) rotate(0 21.5 12.5)"><text x="0" y="18" font-family="Virgil" font-size="20px" fill="#000000" text-anchor="start" style="white-space: pre;">Host</text></g><g transform="translate(392.08984375 229.8046875) rotate(0 69.59765625 50.087890625)"><path d="M1.628880688920617 -0.30026511289179325 C44.54003868171931 -0.04647884054713369, 84.42721939485492 0.7966792257256019, 138.4309427831322 -0.8906029257923365 M0.7692469460889697 0.3193346606567502 C54.23653521237211 -0.104703779131887, 107.80808201594773 -0.8185730229921317, 138.55486283730716 0.854332153685391 M139.66475845314562 0.6256042923778296 C138.14994771095462 24.63113499543942, 141.41671491476245 47.46810757777347, 140.80459863878787 102.02698667906223 M138.74099836777896 -0.19747644197195768 C138.4993454439629 27.449890881393003, 138.44526224565396 54.534824008285796, 139.44071776699275 100.13342425692825 M140.39301330782473 98.39147575758396 C107.77862924496657 101.0688919499344, 73.81519466025783 99.43857360629502, -0.06436597369611263 101.16586496494709 M140.12594539951533 100.75647375453262 C95.74089331065989 98.45291440731823, 51.99275356769067 99.54740812427342, -0.7717368202283978 99.66773200500755 M-0.9558249618858099 101.54904606007038 C0.129249599317518 72.21678898570279, -0.6321547361812918 40.86721890779517, 1.6268443558365107 1.403900584205985 M-0.6350245075300336 100.90777826774864 C0.49245913290014864 71.59994153146361, 1.2084736671351493 43.86205585261268, 0.7675662143155932 -0.8112687719985843" stroke="#000000" stroke-width="1" fill="none"></path></g><g transform="translate(417.28515625 264.03515625) rotate(0 44 12.5)"><text x="0" y="18" font-family="Virgil" font-size="20px" fill="#000000" text-anchor="start" style="white-space: pre;">Fragment</text></g><g transform="translate(216.7421875 10) rotate(0 69.59765625 50.087890625)"><path d="M-0.25120084546506405 -1.716011444106698 C44.192667793193685 1.323388331121314, 92.42469294125185 -1.4059137771664973, 137.9157637450844 -1.0979485306888819 M-0.028040816076099873 0.44176719058305025 C48.7507000560152 0.5534914284853585, 95.57821850836773 0.8121010512022622, 139.70534233283252 -0.3499393416568637 M137.6638311240822 1.8625030722469091 C139.09423169449673 29.307078103132877, 136.26896932677136 61.901820599228806, 138.16430134512484 100.23632427118717 M138.44904927443713 -0.8721611453220248 C138.30050655076684 22.834868282277967, 138.99437295267762 44.86013978293704, 138.3555080993101 99.97755554784088 M138.59411616064608 99.82728429697453 C106.83597549829646 101.75101838882684, 72.67373060315876 99.11879651125192, 1.622000703588128 99.77174415253101 M139.9112954242155 99.38751605618744 C92.03985240545808 99.37735853896919, 44.87093452555564 100.94616217718902, -0.9913783269003034 99.35256344545631 M-0.2571597006171942 98.81987275741993 C0.9515895709953839 64.0584932114525, -1.484119726661629 31.340713747882532, -1.310686519369483 -0.14897648431360722 M0.6570069594308734 100.55871993768959 C1.3625411281997004 67.07171192920032, 1.0492835829669276 31.976737497676368, 0.05967206787317991 0.43038830626755953" stroke="#000000" stroke-width="1" fill="none"></path></g><g transform="translate(244.9375 44.23046875) rotate(0 41 12.5)"><text x="0" y="18" font-family="Virgil" font-size="20px" fill="#000000" text-anchor="start" style="white-space: pre;">Registry</text></g><g><g transform="translate(117.23890314590187 232.90533709563312) rotate(0 66.83905268274248 -60.38326383791863)"><path d="M0.001789754256606102 -0.006772279366850764 C22.43379443262393 -20.128906875476233, 112.70207478425775 -100.44790942035611, 135.13451471958308 -120.75975539647038 M-1.4564093540981413 -1.0559316713735463 C20.725945438376314 -20.957708202116187, 110.8548899109227 -99.13893017720429, 133.9215031643957 -119.1405358476564" stroke="#000000" stroke-width="1" fill="none"></path></g><g transform="translate(117.23890314590187 232.90533709563312) rotate(0 66.83905268274248 -60.38326383791863)"><path d="M119.34382164279204 -93.7553724427537 C124.64908725495894 -103.70591558906794, 127.81402387960318 -109.18381983704434, 134.71947157248854 -120.40750879738476 M120.15953303581308 -92.55071992378839 C125.21127401696324 -102.68629539926764, 130.07840055473227 -113.80914615910066, 133.84521637629717 -119.58008415102955" stroke="#000000" stroke-width="1" fill="none"></path></g><g transform="translate(117.23890314590187 232.90533709563312) rotate(0 66.83905268274248 -60.38326383791863)"><path d="M105.89375341039705 -109.25426488478836 C115.83859918505146 -113.85467904863555, 123.6465964835236 -113.9822537115043, 134.71947157248854 -120.40750879738476 M106.7094648034181 -108.04961236582305 C117.09167499179514 -112.14160669964507, 127.30435876025965 -117.10462130625014, 133.84521637629717 -119.58008415102955" stroke="#000000" stroke-width="1" fill="none"></path></g></g><g transform="translate(10 132.337890625) rotate(0 84 25)"><text x="0" y="18" font-family="Virgil" font-size="20px" fill="#000000" text-anchor="start" style="white-space: pre;">Share React and</text><text x="0" y="43" font-family="Virgil" font-size="20px" fill="#000000" text-anchor="start" style="white-space: pre;">React DOM</text></g><g><g transform="translate(439.07421875 231.314453125) rotate(0 -58.412429329613246 -60.05595748461785)"><path d="M1.1475685480982063 -0.1186147514730691 C-18.583158270145457 -20.062545691306394, -97.69664666218063 -100.17946762082478, -117.41673085652292 -119.9933002177626 M0.2909033065102995 -1.2264914413355292 C-19.617120911373448 -20.93320040763045, -98.35422768502806 -98.50302148978535, -117.97242720732466 -118.43184976836666" stroke="#000000" stroke-width="1" fill="none"></path></g><g transform="translate(439.07421875 231.314453125) rotate(0 -58.412429329613246 -60.05595748461785)"><path d="M-90.9697445944098 -104.531666983911 C-101.01444983132257 -108.68202984875049, -109.71507045010502 -114.39479797453137, -117.24517733724788 -117.35337129233405 M-89.86212250647668 -106.50586036412527 C-98.18885828806238 -109.26204633732212, -104.1719040905864 -112.97955609923793, -117.30914519010112 -119.14559637101367" stroke="#000000" stroke-width="1" fill="none"></path></g><g transform="translate(439.07421875 231.314453125) rotate(0 -58.412429329613246 -60.05595748461785)"><path d="M-105.46766260775776 -90.00822470378745 C-109.95403575398952 -99.82537481057031, -113.13622920420408 -111.06628555558602, -117.24517733724788 -117.35337129233405 M-104.36004051982464 -91.98241808400172 C-108.99028397373912 -98.48897853860828, -111.17885017244481 -106.00764826421155, -117.30914519010112 -119.14559637101367" stroke="#000000" stroke-width="1" fill="none"></path></g></g><g transform="translate(408.44140625 134.111328125) rotate(0 91 25)"><text x="0" y="18" font-family="Virgil" font-size="20px" fill="#000000" text-anchor="start" style="white-space: pre;">Require React and</text><text x="0" y="43" font-family="Virgil" font-size="20px" fill="#000000" text-anchor="start" style="white-space: pre;">ReactDOM</text></g></svg>